<svg width="84" height="50" viewBox="0 0 84 50" fill="none" xmlns="http://www.w3.org/2000/svg">
<path d="M75.7917 0H8.33333C3.75 0 0.0416666 2.8125 0.0416666 6.25V18.75C4.625 18.75 8.33333 21.5625 8.33333 25C8.33333 28.4375 4.625 31.25 0 31.25V43.75C0 47.1875 3.75 50 8.33333 50H75C79.5833 50 83.3333 47.1875 83.3333 43.75V6.25C83.3333 2.8125 79.9583 0 75.7917 0ZM65.5417 29.0625L28.625 36.4375L21.7083 27.4375L25.5833 26.6562L30.8333 29.75L40.7917 27.75L30.7917 14.75L36.625 13.5625L53.3333 25.25L63.5 23.2188C65.625 22.7813 67.8333 23.75 68.4167 25.3437C68.9583 26.9375 67.7083 28.5938 65.5417 29.0625Z" fill="#3647DE"/>
</svg>
