<svg width="372" height="75" viewBox="0 0 372 75" fill="none" xmlns="http://www.w3.org/2000/svg">
<path d="M40.0625 53.25C38.375 55.2708 35.9896 56.8438 32.9062 57.9688C29.8229 59.0729 26.4062 59.625 22.6562 59.625C18.7188 59.625 15.2604 58.7708 12.2812 57.0625C9.32292 55.3333 7.03125 52.8333 5.40625 49.5625C3.80208 46.2917 2.97917 42.4479 2.9375 38.0312V34.9375C2.9375 30.3958 3.69792 26.4688 5.21875 23.1562C6.76042 19.8229 8.96875 17.2812 11.8438 15.5312C14.7396 13.7604 18.125 12.875 22 12.875C27.3958 12.875 31.6146 14.1667 34.6562 16.75C37.6979 19.3125 39.5 23.0521 40.0625 27.9688H30.9375C30.5208 25.3646 29.5938 23.4583 28.1562 22.25C26.7396 21.0417 24.7812 20.4375 22.2812 20.4375C19.0938 20.4375 16.6667 21.6354 15 24.0312C13.3333 26.4271 12.4896 29.9896 12.4688 34.7188V37.625C12.4688 42.3958 13.375 46 15.1875 48.4375C17 50.875 19.6562 52.0938 23.1562 52.0938C26.6771 52.0938 29.1875 51.3438 30.6875 49.8438V42H22.1562V35.0938H40.0625V53.25ZM66.6875 59C66.2708 58.1875 65.9688 57.1771 65.7812 55.9688C63.5938 58.4062 60.75 59.625 57.25 59.625C53.9375 59.625 51.1875 58.6667 49 56.75C46.8333 54.8333 45.75 52.4167 45.75 49.5C45.75 45.9167 47.0729 43.1667 49.7188 41.25C52.3854 39.3333 56.2292 38.3646 61.25 38.3438H65.4062V36.4062C65.4062 34.8438 65 33.5938 64.1875 32.6562C63.3958 31.7188 62.1354 31.25 60.4062 31.25C58.8854 31.25 57.6875 31.6146 56.8125 32.3438C55.9583 33.0729 55.5312 34.0729 55.5312 35.3438H46.5C46.5 33.3854 47.1042 31.5729 48.3125 29.9062C49.5208 28.2396 51.2292 26.9375 53.4375 26C55.6458 25.0417 58.125 24.5625 60.875 24.5625C65.0417 24.5625 68.3438 25.6146 70.7812 27.7188C73.2396 29.8021 74.4688 32.7396 74.4688 36.5312V51.1875C74.4896 54.3958 74.9375 56.8229 75.8125 58.4688V59H66.6875ZM59.2188 52.7188C60.5521 52.7188 61.7812 52.4271 62.9062 51.8438C64.0312 51.2396 64.8646 50.4375 65.4062 49.4375V43.625H62.0312C57.5104 43.625 55.1042 45.1875 54.8125 48.3125L54.7812 48.8438C54.7812 49.9688 55.1771 50.8958 55.9688 51.625C56.7604 52.3542 57.8438 52.7188 59.2188 52.7188ZM89.875 25.1875L90.1562 28.9688C92.5521 26.0312 95.7917 24.5625 99.875 24.5625C104.229 24.5625 107.219 26.2812 108.844 29.7188C111.219 26.2812 114.604 24.5625 119 24.5625C122.667 24.5625 125.396 25.6354 127.188 27.7812C128.979 29.9062 129.875 33.1146 129.875 37.4062V59H120.812V37.4375C120.812 35.5208 120.438 34.125 119.688 33.25C118.938 32.3542 117.615 31.9062 115.719 31.9062C113.01 31.9062 111.135 33.1979 110.094 35.7812L110.125 59H101.094V37.4688C101.094 35.5104 100.708 34.0938 99.9375 33.2188C99.1667 32.3438 97.8542 31.9062 96 31.9062C93.4375 31.9062 91.5833 32.9688 90.4375 35.0938V59H81.4062V25.1875H89.875ZM156.438 59C156.021 58.1875 155.719 57.1771 155.531 55.9688C153.344 58.4062 150.5 59.625 147 59.625C143.688 59.625 140.938 58.6667 138.75 56.75C136.583 54.8333 135.5 52.4167 135.5 49.5C135.5 45.9167 136.823 43.1667 139.469 41.25C142.135 39.3333 145.979 38.3646 151 38.3438H155.156V36.4062C155.156 34.8438 154.75 33.5938 153.938 32.6562C153.146 31.7188 151.885 31.25 150.156 31.25C148.635 31.25 147.438 31.6146 146.562 32.3438C145.708 33.0729 145.281 34.0729 145.281 35.3438H136.25C136.25 33.3854 136.854 31.5729 138.062 29.9062C139.271 28.2396 140.979 26.9375 143.188 26C145.396 25.0417 147.875 24.5625 150.625 24.5625C154.792 24.5625 158.094 25.6146 160.531 27.7188C162.99 29.8021 164.219 32.7396 164.219 36.5312V51.1875C164.24 54.3958 164.688 56.8229 165.562 58.4688V59H156.438ZM148.969 52.7188C150.302 52.7188 151.531 52.4271 152.656 51.8438C153.781 51.2396 154.615 50.4375 155.156 49.4375V43.625H151.781C147.26 43.625 144.854 45.1875 144.562 48.3125L144.531 48.8438C144.531 49.9688 144.927 50.8958 145.719 51.625C146.51 52.3542 147.594 52.7188 148.969 52.7188ZM213.375 49.625H196.938L193.812 59H183.844L200.781 13.5H209.469L226.5 59H216.531L213.375 49.625ZM199.469 42.0312H210.844L205.125 25L199.469 42.0312ZM239.688 59H230.625V25.1875H239.688V59ZM230.094 16.4375C230.094 15.0833 230.542 13.9688 231.438 13.0938C232.354 12.2188 233.594 11.7812 235.156 11.7812C236.698 11.7812 237.927 12.2188 238.844 13.0938C239.76 13.9688 240.219 15.0833 240.219 16.4375C240.219 17.8125 239.75 18.9375 238.812 19.8125C237.896 20.6875 236.677 21.125 235.156 21.125C233.635 21.125 232.406 20.6875 231.469 19.8125C230.552 18.9375 230.094 17.8125 230.094 16.4375ZM266.156 33.6562C264.927 33.4896 263.844 33.4062 262.906 33.4062C259.49 33.4062 257.25 34.5625 256.188 36.875V59H247.156V25.1875H255.688L255.938 29.2188C257.75 26.1146 260.26 24.5625 263.469 24.5625C264.469 24.5625 265.406 24.6979 266.281 24.9688L266.156 33.6562ZM280.062 59H271V11H280.062V59ZM297.062 59H288V25.1875H297.062V59ZM287.469 16.4375C287.469 15.0833 287.917 13.9688 288.812 13.0938C289.729 12.2188 290.969 11.7812 292.531 11.7812C294.073 11.7812 295.302 12.2188 296.219 13.0938C297.135 13.9688 297.594 15.0833 297.594 16.4375C297.594 17.8125 297.125 18.9375 296.188 19.8125C295.271 20.6875 294.052 21.125 292.531 21.125C291.01 21.125 289.781 20.6875 288.844 19.8125C287.927 18.9375 287.469 17.8125 287.469 16.4375ZM312.844 25.1875L313.125 29.0938C315.542 26.0729 318.781 24.5625 322.844 24.5625C326.427 24.5625 329.094 25.6146 330.844 27.7188C332.594 29.8229 333.49 32.9688 333.531 37.1562V59H324.5V37.375C324.5 35.4583 324.083 34.0729 323.25 33.2188C322.417 32.3438 321.031 31.9062 319.094 31.9062C316.552 31.9062 314.646 32.9896 313.375 35.1562V59H304.344V25.1875H312.844ZM355.969 59.625C351.01 59.625 346.969 58.1042 343.844 55.0625C340.74 52.0208 339.188 47.9688 339.188 42.9062V42.0312C339.188 38.6354 339.844 35.6042 341.156 32.9375C342.469 30.25 344.323 28.1875 346.719 26.75C349.135 25.2917 351.885 24.5625 354.969 24.5625C359.594 24.5625 363.229 26.0208 365.875 28.9375C368.542 31.8542 369.875 35.9896 369.875 41.3438V45.0312H348.344C348.635 47.2396 349.51 49.0104 350.969 50.3438C352.448 51.6771 354.312 52.3438 356.562 52.3438C360.042 52.3438 362.76 51.0833 364.719 48.5625L369.156 53.5312C367.802 55.4479 365.969 56.9479 363.656 58.0312C361.344 59.0938 358.781 59.625 355.969 59.625ZM354.938 31.875C353.146 31.875 351.688 32.4792 350.562 33.6875C349.458 34.8958 348.75 36.625 348.438 38.875H361V38.1562C360.958 36.1562 360.417 34.6146 359.375 33.5312C358.333 32.4271 356.854 31.875 354.938 31.875Z" fill="white"/>
<path d="M40.0625 53.25L40.8301 53.891L41.0625 53.6126V53.25H40.0625ZM32.9062 57.9688L33.2434 58.9102L33.249 58.9082L32.9062 57.9688ZM12.2812 57.0625L11.7766 57.9259L11.7838 57.93L12.2812 57.0625ZM5.40625 49.5625L4.50841 50.0028L4.51068 50.0074L5.40625 49.5625ZM2.9375 38.0312L1.93746 38.0313L1.93754 38.0407L2.9375 38.0312ZM5.21875 23.1562L4.31112 22.7365L4.30996 22.739L5.21875 23.1562ZM11.8438 15.5312L12.3637 16.3855L12.3654 16.3844L11.8438 15.5312ZM34.6562 16.75L34.0089 17.5122L34.012 17.5148L34.6562 16.75ZM40.0625 27.9688V28.9688H41.1834L41.056 27.8551L40.0625 27.9688ZM30.9375 27.9688L29.9501 28.1267L30.0848 28.9688H30.9375V27.9688ZM28.1562 22.25L27.5073 23.0109L27.5128 23.0155L28.1562 22.25ZM15 24.0312L14.1791 23.4602L15 24.0312ZM12.4688 34.7188L11.4688 34.7143V34.7188H12.4688ZM30.6875 49.8438L31.3946 50.5509L31.6875 50.258V49.8438H30.6875ZM30.6875 42H31.6875V41H30.6875V42ZM22.1562 42H21.1562V43H22.1562V42ZM22.1562 35.0938V34.0938H21.1562V35.0938H22.1562ZM40.0625 35.0938H41.0625V34.0938H40.0625V35.0938ZM39.2949 52.609C37.745 54.4652 35.5218 55.95 32.5635 57.0293L33.249 58.9082C36.4574 57.7375 39.005 56.0765 40.8301 53.891L39.2949 52.609ZM32.5691 57.0273C29.6084 58.0875 26.3078 58.625 22.6562 58.625V60.625C26.5047 60.625 30.0374 60.0583 33.2434 58.9102L32.5691 57.0273ZM22.6562 58.625C18.8673 58.625 15.5854 57.8045 12.7787 56.195L11.7838 57.93C14.9354 59.7372 18.5702 60.625 22.6562 60.625V58.625ZM12.7859 56.1992C10.0071 54.575 7.84606 52.2259 6.30182 49.1176L4.51068 50.0074C6.21644 53.4408 8.63872 56.0917 11.7766 57.9258L12.7859 56.1992ZM6.30408 49.1222C4.77822 46.011 3.97801 42.3202 3.93746 38.0218L1.93754 38.0407C1.98033 42.5756 2.82594 46.5723 4.50842 50.0028L6.30408 49.1222ZM3.9375 38.0312V34.9375H1.9375V38.0312H3.9375ZM3.9375 34.9375C3.9375 30.5054 4.67969 26.727 6.12754 23.5735L4.30996 22.739C2.71614 26.2105 1.9375 30.2863 1.9375 34.9375H3.9375ZM6.12638 23.576C7.5927 20.4056 9.6736 18.0229 12.3637 16.3854L11.3238 14.6771C8.2639 16.5396 5.92813 19.2402 4.31112 22.7365L6.12638 23.576ZM12.3654 16.3844C15.083 14.7226 18.2825 13.875 22 13.875V11.875C17.9675 11.875 14.3962 12.7982 11.3221 14.6781L12.3654 16.3844ZM22 13.875C27.2425 13.875 31.203 15.1291 34.0089 17.5122L35.3036 15.9878C32.0262 13.2042 27.5492 11.875 22 11.875V13.875ZM34.012 17.5148C36.8135 19.875 38.5281 23.3544 39.069 28.0824L41.056 27.8551C40.4719 22.7497 38.5823 18.75 35.3005 15.9852L34.012 17.5148ZM40.0625 26.9688H30.9375V28.9688H40.0625V26.9688ZM31.9249 27.8108C31.4856 25.0646 30.4835 22.8999 28.7997 21.4845L27.5128 23.0155C28.704 24.0168 29.5561 25.6646 29.9501 28.1267L31.9249 27.8108ZM28.8052 21.4892C27.1536 20.0805 24.937 19.4375 22.2812 19.4375V21.4375C24.6255 21.4375 26.3256 22.0029 27.5073 23.0108L28.8052 21.4892ZM22.2812 19.4375C18.8018 19.4375 16.052 20.7678 14.1791 23.4602L15.8209 24.6023C17.2813 22.503 19.3857 21.4375 22.2812 21.4375V19.4375ZM14.1791 23.4602C12.345 26.0967 11.49 29.8972 11.4688 34.7143L13.4687 34.7232C13.4892 30.0819 14.3216 26.7575 15.8209 24.6023L14.1791 23.4602ZM11.4688 34.7188V37.625H13.4688V34.7188H11.4688ZM11.4688 37.625C11.4688 42.4965 12.3897 46.3508 14.385 49.0342L15.99 47.8408C14.3603 45.6492 13.4688 42.2952 13.4688 37.625H11.4688ZM14.385 49.0342C16.4167 51.7665 19.3949 53.0938 23.1562 53.0938V51.0938C19.9176 51.0938 17.5833 49.9835 15.99 47.8408L14.385 49.0342ZM23.1562 53.0938C26.7766 53.0938 29.6157 52.3298 31.3946 50.5509L29.9804 49.1366C28.7593 50.3577 26.5776 51.0938 23.1562 51.0938V53.0938ZM31.6875 49.8438V42H29.6875V49.8438H31.6875ZM30.6875 41H22.1562V43H30.6875V41ZM23.1562 42V35.0938H21.1562V42H23.1562ZM22.1562 36.0938H40.0625V34.0938H22.1562V36.0938ZM39.0625 35.0938V53.25H41.0625V35.0938H39.0625ZM66.6875 59L65.7977 59.4563L66.0765 60H66.6875V59ZM65.7812 55.9688L66.7694 55.8154L66.446 53.7309L65.037 55.3008L65.7812 55.9688ZM49 56.75L48.3374 57.499L48.341 57.5021L49 56.75ZM49.7188 41.25L49.1351 40.438L49.1321 40.4402L49.7188 41.25ZM61.25 38.3438L61.25 37.3437L61.2459 37.3438L61.25 38.3438ZM65.4062 38.3438V39.3438H66.4062V38.3438H65.4062ZM64.1875 32.6562L63.4234 33.3015L63.4318 33.3112L64.1875 32.6562ZM56.8125 32.3438L56.1723 31.5755L56.1632 31.5832L56.8125 32.3438ZM55.5312 35.3438V36.3438H56.5312V35.3438H55.5312ZM46.5 35.3438H45.5V36.3438H46.5V35.3438ZM53.4375 26L53.8283 26.9205L53.8356 26.9173L53.4375 26ZM70.7812 27.7188L70.1278 28.4757L70.1347 28.4816L70.7812 27.7188ZM74.4688 51.1875L73.4687 51.1875L73.4688 51.194L74.4688 51.1875ZM75.8125 58.4688H76.8125V58.2194L76.6955 57.9993L75.8125 58.4688ZM75.8125 59V60H76.8125V59H75.8125ZM62.9062 51.8438L63.3666 52.7315L63.373 52.7282L63.3794 52.7247L62.9062 51.8438ZM65.4062 49.4375L66.2855 49.9138L66.4062 49.6909V49.4375H65.4062ZM65.4062 43.625H66.4062V42.625H65.4062V43.625ZM54.8125 48.3125L53.8168 48.2196L53.8152 48.2367L53.8142 48.2538L54.8125 48.3125ZM54.7812 48.8438L53.783 48.785L53.7812 48.8144V48.8438H54.7812ZM67.5773 58.5437C67.2228 57.8523 66.9457 56.9516 66.7694 55.8154L64.7931 56.1221C64.9918 57.4025 65.3189 58.5227 65.7977 59.4563L67.5773 58.5437ZM65.037 55.3008C63.0534 57.5112 60.488 58.625 57.25 58.625V60.625C61.012 60.625 64.1341 59.3013 66.5255 56.6367L65.037 55.3008ZM57.25 58.625C54.144 58.625 51.6388 57.7326 49.659 55.9979L48.341 57.5021C50.7362 59.6008 53.731 60.625 57.25 60.625V58.625ZM49.6626 56.001C47.7125 54.2759 46.75 52.1329 46.75 49.5H44.75C44.75 52.7004 45.9542 55.3907 48.3374 57.499L49.6626 56.001ZM46.75 49.5C46.75 46.2012 47.9471 43.7682 50.3054 42.0598L49.1321 40.4402C46.1987 42.5651 44.75 45.6321 44.75 49.5H46.75ZM50.3024 42.062C52.7322 40.3156 56.3382 39.3641 61.2541 39.3437L61.2459 37.3438C56.1202 37.365 52.0386 38.3511 49.1351 40.438L50.3024 42.062ZM61.25 39.3438H65.4062V37.3438H61.25V39.3438ZM66.4062 38.3438V36.4062H64.4062V38.3438H66.4062ZM66.4062 36.4062C66.4062 34.6676 65.9509 33.164 64.9432 32.0013L63.4318 33.3112C64.0491 34.0235 64.4062 35.0199 64.4062 36.4062H66.4062ZM64.9515 32.0111C63.9016 30.7677 62.3045 30.25 60.4062 30.25V32.25C61.9663 32.25 62.8901 32.6698 63.4235 33.3014L64.9515 32.0111ZM60.4062 30.25C58.7304 30.25 57.2795 30.6529 56.1723 31.5755L57.4527 33.112C58.0955 32.5763 59.0405 32.25 60.4062 32.25V30.25ZM56.1632 31.5832C55.0557 32.5286 54.5312 33.8234 54.5312 35.3438H56.5312C56.5312 34.3225 56.861 33.6172 57.4618 33.1043L56.1632 31.5832ZM55.5312 34.3438H46.5V36.3438H55.5312V34.3438ZM47.5 35.3438C47.5 33.6075 48.0308 31.9985 49.1221 30.4932L47.5029 29.3193C46.1775 31.1473 45.5 33.1634 45.5 35.3438H47.5ZM49.1221 30.4932C50.2072 28.9966 51.7592 27.7989 53.8283 26.9205L53.0467 25.0795C50.6991 26.0761 48.8345 27.4826 47.5029 29.3193L49.1221 30.4932ZM53.8356 26.9173C55.9016 26.0208 58.2425 25.5625 60.875 25.5625V23.5625C58.0075 23.5625 55.39 24.0626 53.0394 25.0827L53.8356 26.9173ZM60.875 25.5625C64.8738 25.5625 67.9199 26.5697 70.1278 28.4757L71.4347 26.9618C68.7676 24.6594 65.2095 23.5625 60.875 23.5625V25.5625ZM70.1347 28.4816C72.3284 30.3407 73.4688 32.976 73.4688 36.5312H75.4688C75.4688 32.5032 74.1507 29.2634 71.4278 26.9559L70.1347 28.4816ZM73.4688 36.5312V51.1875H75.4688V36.5312H73.4688ZM73.4688 51.194C73.49 54.4627 73.9424 57.0813 74.9295 58.9382L76.6955 57.9993C75.9326 56.5645 75.4892 54.3289 75.4687 51.181L73.4688 51.194ZM74.8125 58.4688V59H76.8125V58.4688H74.8125ZM75.8125 58H66.6875V60H75.8125V58ZM59.2188 53.7188C60.7037 53.7188 62.0919 53.3925 63.3666 52.7315L62.4459 50.956C61.4706 51.4617 60.4005 51.7188 59.2188 51.7188V53.7188ZM63.3794 52.7247C64.6545 52.0399 65.6398 51.106 66.2855 49.9138L64.527 48.9612C64.0894 49.769 63.408 50.4392 62.4331 50.9628L63.3794 52.7247ZM66.4062 49.4375V43.625H64.4062V49.4375H66.4062ZM65.4062 42.625H62.0312V44.625H65.4062V42.625ZM62.0312 42.625C59.6796 42.625 57.725 43.0272 56.2913 43.9582C54.8054 44.9231 53.988 46.3853 53.8168 48.2196L55.8082 48.4054C55.9286 47.1147 56.4603 46.2331 57.3805 45.6356C58.3531 45.004 59.862 44.625 62.0312 44.625V42.625ZM53.8142 48.2538L53.783 48.785L55.7795 48.9025L55.8108 48.3712L53.8142 48.2538ZM53.7812 48.8438C53.7812 50.2339 54.2838 51.4326 55.2913 52.3605L56.6462 50.8895C56.0704 50.3591 55.7812 49.7036 55.7812 48.8438H53.7812ZM55.2913 52.3605C56.3145 53.303 57.6649 53.7188 59.2188 53.7188V51.7188C58.0226 51.7188 57.2063 51.4053 56.6462 50.8895L55.2913 52.3605ZM89.875 25.1875L90.8722 25.1133L90.8034 24.1875H89.875V25.1875ZM90.1562 28.9688L89.159 29.0429L89.3451 31.5454L90.9312 29.6008L90.1562 28.9688ZM108.844 29.7188L107.94 30.1461L108.681 31.7139L109.666 30.2872L108.844 29.7188ZM127.188 27.7812L126.42 28.4222L126.423 28.4258L127.188 27.7812ZM129.875 59V60H130.875V59H129.875ZM120.812 59H119.812V60H120.812V59ZM119.688 33.25L118.921 33.892L118.928 33.9008L119.688 33.25ZM110.094 35.7812L109.166 35.4073L109.093 35.5879L109.094 35.7826L110.094 35.7812ZM110.125 59V60H111.126L111.125 58.9987L110.125 59ZM101.094 59H100.094V60H101.094V59ZM90.4375 35.0938L89.5573 34.6191L89.4375 34.8413V35.0938H90.4375ZM90.4375 59V60H91.4375V59H90.4375ZM81.4062 59H80.4062V60H81.4062V59ZM81.4062 25.1875V24.1875H80.4062V25.1875H81.4062ZM88.8778 25.2617L89.159 29.0429L91.1535 28.8946L90.8722 25.1133L88.8778 25.2617ZM90.9312 29.6008C93.1209 26.9159 96.0656 25.5625 99.875 25.5625V23.5625C95.5177 23.5625 91.9832 25.1466 89.3813 28.3367L90.9312 29.6008ZM99.875 25.5625C101.922 25.5625 103.576 25.9664 104.884 26.7185C106.184 27.4658 107.205 28.5921 107.94 30.1461L109.748 29.2914C108.857 27.4079 107.571 25.9561 105.881 24.9846C104.2 24.018 102.182 23.5625 99.875 23.5625V25.5625ZM109.666 30.2872C111.844 27.1362 114.912 25.5625 119 25.5625V23.5625C114.296 23.5625 110.594 25.4263 108.021 29.1503L109.666 30.2872ZM119 25.5625C122.469 25.5625 124.874 26.5702 126.42 28.4222L127.955 27.1403C125.918 24.7006 122.864 23.5625 119 23.5625V25.5625ZM126.423 28.4258C127.999 30.295 128.875 33.2281 128.875 37.4062H130.875C130.875 33.001 129.959 29.5175 127.952 27.1367L126.423 28.4258ZM128.875 37.4062V59H130.875V37.4062H128.875ZM129.875 58H120.812V60H129.875V58ZM121.812 59V37.4375H119.812V59H121.812ZM121.812 37.4375C121.812 35.4287 121.426 33.7422 120.447 32.5992L118.928 33.9008C119.449 34.5078 119.812 35.6129 119.812 37.4375H121.812ZM120.454 32.6081C119.422 31.3757 117.729 30.9062 115.719 30.9062V32.9062C117.5 32.9062 118.453 33.3327 118.921 33.8919L120.454 32.6081ZM115.719 30.9062C114.201 30.9062 112.848 31.2703 111.714 32.0515C110.582 32.8313 109.744 33.9746 109.166 35.4073L111.021 36.1552C111.485 35.0045 112.105 34.2104 112.849 33.6985C113.59 33.188 114.528 32.9062 115.719 32.9062V30.9062ZM109.094 35.7826L109.125 59.0013L111.125 58.9987L111.094 35.7799L109.094 35.7826ZM110.125 58H101.094V60H110.125V58ZM102.094 59V37.4688H100.094V59H102.094ZM102.094 37.4688C102.094 35.4201 101.698 33.7044 100.688 32.5577L99.1871 33.8798C99.7186 34.4831 100.094 35.6008 100.094 37.4688H102.094ZM100.688 32.5577C99.6394 31.3676 97.9746 30.9062 96 30.9062V32.9062C97.7338 32.9062 98.6939 33.3199 99.1871 33.8798L100.688 32.5577ZM96 30.9062C94.5791 30.9062 93.2963 31.2017 92.1903 31.8355C91.0811 32.4711 90.207 33.4143 89.5573 34.6191L91.3177 35.5684C91.8139 34.6482 92.4397 33.9977 93.1847 33.5708C93.9329 33.142 94.8584 32.9062 96 32.9062V30.9062ZM89.4375 35.0938V59H91.4375V35.0938H89.4375ZM90.4375 58H81.4062V60H90.4375V58ZM82.4062 59V25.1875H80.4062V59H82.4062ZM81.4062 26.1875H89.875V24.1875H81.4062V26.1875ZM156.438 59L155.548 59.4563L155.826 60H156.438V59ZM155.531 55.9688L156.519 55.8154L156.196 53.7309L154.787 55.3008L155.531 55.9688ZM138.75 56.75L138.087 57.499L138.091 57.5021L138.75 56.75ZM139.469 41.25L138.885 40.438L138.882 40.4402L139.469 41.25ZM151 38.3438L151 37.3437L150.996 37.3438L151 38.3438ZM155.156 38.3438V39.3438H156.156V38.3438H155.156ZM153.938 32.6562L153.173 33.3015L153.182 33.3112L153.938 32.6562ZM146.562 32.3438L145.922 31.5755L145.913 31.5832L146.562 32.3438ZM145.281 35.3438V36.3438H146.281V35.3438H145.281ZM136.25 35.3438H135.25V36.3438H136.25V35.3438ZM143.188 26L143.578 26.9205L143.586 26.9173L143.188 26ZM160.531 27.7188L159.878 28.4757L159.885 28.4816L160.531 27.7188ZM164.219 51.1875L163.219 51.1875L163.219 51.194L164.219 51.1875ZM165.562 58.4688H166.562V58.2194L166.445 57.9993L165.562 58.4688ZM165.562 59V60H166.562V59H165.562ZM152.656 51.8438L153.117 52.7315L153.123 52.7282L153.129 52.7247L152.656 51.8438ZM155.156 49.4375L156.036 49.9138L156.156 49.6909V49.4375H155.156ZM155.156 43.625H156.156V42.625H155.156V43.625ZM144.562 48.3125L143.567 48.2196L143.565 48.2367L143.564 48.2538L144.562 48.3125ZM144.531 48.8438L143.533 48.785L143.531 48.8144V48.8438H144.531ZM157.327 58.5437C156.973 57.8523 156.696 56.9516 156.519 55.8154L154.543 56.1221C154.742 57.4025 155.069 58.5227 155.548 59.4563L157.327 58.5437ZM154.787 55.3008C152.803 57.5112 150.238 58.625 147 58.625V60.625C150.762 60.625 153.884 59.3013 156.275 56.6367L154.787 55.3008ZM147 58.625C143.894 58.625 141.389 57.7326 139.409 55.9979L138.091 57.5021C140.486 59.6008 143.481 60.625 147 60.625V58.625ZM139.413 56.001C137.463 54.2759 136.5 52.1329 136.5 49.5H134.5C134.5 52.7004 135.704 55.3907 138.087 57.499L139.413 56.001ZM136.5 49.5C136.5 46.2012 137.697 43.7682 140.055 42.0598L138.882 40.4402C135.949 42.5651 134.5 45.6321 134.5 49.5H136.5ZM140.052 42.062C142.482 40.3156 146.088 39.3641 151.004 39.3437L150.996 37.3438C145.87 37.365 141.789 38.3511 138.885 40.438L140.052 42.062ZM151 39.3438H155.156V37.3438H151V39.3438ZM156.156 38.3438V36.4062H154.156V38.3438H156.156ZM156.156 36.4062C156.156 34.6676 155.701 33.164 154.693 32.0013L153.182 33.3112C153.799 34.0235 154.156 35.0199 154.156 36.4062H156.156ZM154.702 32.0111C153.652 30.7677 152.055 30.25 150.156 30.25V32.25C151.716 32.25 152.64 32.6698 153.173 33.3014L154.702 32.0111ZM150.156 30.25C148.48 30.25 147.03 30.6529 145.922 31.5755L147.203 33.112C147.845 32.5763 148.79 32.25 150.156 32.25V30.25ZM145.913 31.5832C144.806 32.5286 144.281 33.8234 144.281 35.3438H146.281C146.281 34.3225 146.611 33.6172 147.212 33.1043L145.913 31.5832ZM145.281 34.3438H136.25V36.3438H145.281V34.3438ZM137.25 35.3438C137.25 33.6075 137.781 31.9985 138.872 30.4932L137.253 29.3193C135.928 31.1473 135.25 33.1634 135.25 35.3438H137.25ZM138.872 30.4932C139.957 28.9966 141.509 27.7989 143.578 26.9205L142.797 25.0795C140.449 26.0761 138.585 27.4826 137.253 29.3193L138.872 30.4932ZM143.586 26.9173C145.652 26.0208 147.993 25.5625 150.625 25.5625V23.5625C147.757 23.5625 145.14 24.0626 142.789 25.0827L143.586 26.9173ZM150.625 25.5625C154.624 25.5625 157.67 26.5697 159.878 28.4757L161.185 26.9618C158.518 24.6594 154.96 23.5625 150.625 23.5625V25.5625ZM159.885 28.4816C162.078 30.3407 163.219 32.976 163.219 36.5312H165.219C165.219 32.5032 163.901 29.2634 161.178 26.9559L159.885 28.4816ZM163.219 36.5312V51.1875H165.219V36.5312H163.219ZM163.219 51.194C163.24 54.4627 163.692 57.0813 164.68 58.9382L166.445 57.9993C165.683 56.5645 165.239 54.3289 165.219 51.181L163.219 51.194ZM164.562 58.4688V59H166.562V58.4688H164.562ZM165.562 58H156.438V60H165.562V58ZM148.969 53.7188C150.454 53.7188 151.842 53.3925 153.117 52.7315L152.196 50.956C151.221 51.4617 150.15 51.7188 148.969 51.7188V53.7188ZM153.129 52.7247C154.405 52.0399 155.39 51.106 156.036 49.9138L154.277 48.9612C153.839 49.769 153.158 50.4392 152.183 50.9628L153.129 52.7247ZM156.156 49.4375V43.625H154.156V49.4375H156.156ZM155.156 42.625H151.781V44.625H155.156V42.625ZM151.781 42.625C149.43 42.625 147.475 43.0272 146.041 43.9582C144.555 44.9231 143.738 46.3853 143.567 48.2196L145.558 48.4054C145.679 47.1147 146.21 46.2331 147.131 45.6356C148.103 45.004 149.612 44.625 151.781 44.625V42.625ZM143.564 48.2538L143.533 48.785L145.53 48.9025L145.561 48.3712L143.564 48.2538ZM143.531 48.8438C143.531 50.2339 144.034 51.4326 145.041 52.3605L146.396 50.8895C145.82 50.3591 145.531 49.7036 145.531 48.8438H143.531ZM145.041 52.3605C146.065 53.303 147.415 53.7188 148.969 53.7188V51.7188C147.773 51.7188 146.956 51.4053 146.396 50.8895L145.041 52.3605ZM213.375 49.625L214.323 49.3059L214.093 48.625H213.375V49.625ZM196.938 49.625V48.625H196.217L195.989 49.3088L196.938 49.625ZM193.812 59V60H194.533L194.761 59.3162L193.812 59ZM183.844 59L182.907 58.6511L182.404 60H183.844V59ZM200.781 13.5V12.5H200.086L199.844 13.1511L200.781 13.5ZM209.469 13.5L210.405 13.1494L210.162 12.5H209.469V13.5ZM226.5 59V60H227.942L227.437 58.6494L226.5 59ZM216.531 59L215.584 59.3191L215.813 60H216.531V59ZM199.469 42.0312L198.52 41.7161L198.083 43.0312H199.469V42.0312ZM210.844 42.0312V43.0312H212.234L211.792 41.7129L210.844 42.0312ZM205.125 25L206.073 24.6817L205.12 21.8429L204.176 24.6848L205.125 25ZM213.375 48.625H196.938V50.625H213.375V48.625ZM195.989 49.3088L192.864 58.6838L194.761 59.3162L197.886 49.9412L195.989 49.3088ZM193.812 58H183.844V60H193.812V58ZM184.781 59.3489L201.718 13.8489L199.844 13.1511L182.907 58.6511L184.781 59.3489ZM200.781 14.5H209.469V12.5H200.781V14.5ZM208.532 13.8506L225.563 59.3506L227.437 58.6494L210.405 13.1494L208.532 13.8506ZM226.5 58H216.531V60H226.5V58ZM217.479 58.6809L214.323 49.3059L212.427 49.9441L215.584 59.3191L217.479 58.6809ZM199.469 43.0312H210.844V41.0312H199.469V43.0312ZM211.792 41.7129L206.073 24.6817L204.177 25.3183L209.896 42.3496L211.792 41.7129ZM204.176 24.6848L198.52 41.7161L200.418 42.3464L206.074 25.3152L204.176 24.6848ZM239.688 59V60H240.688V59H239.688ZM230.625 59H229.625V60H230.625V59ZM230.625 25.1875V24.1875H229.625V25.1875H230.625ZM239.688 25.1875H240.688V24.1875H239.688V25.1875ZM231.438 13.0938L230.747 12.3703L230.739 12.3784L231.438 13.0938ZM238.812 19.8125L238.13 19.0814L238.122 19.0891L238.812 19.8125ZM231.469 19.8125L230.778 20.5359L230.786 20.5436L231.469 19.8125ZM239.688 58H230.625V60H239.688V58ZM231.625 59V25.1875H229.625V59H231.625ZM230.625 26.1875H239.688V24.1875H230.625V26.1875ZM238.688 25.1875V59H240.688V25.1875H238.688ZM231.094 16.4375C231.094 15.3283 231.45 14.4796 232.136 13.8091L230.739 12.3784C229.634 13.4579 229.094 14.8383 229.094 16.4375H231.094ZM232.128 13.8171C232.817 13.1589 233.788 12.7812 235.156 12.7812V10.7812C233.4 10.7812 231.891 11.2786 230.747 12.3704L232.128 13.8171ZM235.156 12.7812C236.5 12.7812 237.461 13.1566 238.153 13.8171L239.534 12.3704C238.393 11.2809 236.896 10.7812 235.156 10.7812V12.7812ZM238.153 13.8171C238.858 14.4894 239.219 15.3357 239.219 16.4375H241.219C241.219 14.831 240.663 13.4481 239.534 12.3704L238.153 13.8171ZM239.219 16.4375C239.219 17.5577 238.849 18.4103 238.13 19.0814L239.495 20.5436C240.651 19.4647 241.219 18.0673 241.219 16.4375H239.219ZM238.122 19.0891C237.428 19.7521 236.475 20.125 235.156 20.125V22.125C236.88 22.125 238.364 21.6229 239.503 20.5359L238.122 19.0891ZM235.156 20.125C233.839 20.125 232.87 19.7522 232.151 19.0814L230.786 20.5436C231.943 21.6228 233.432 22.125 235.156 22.125V20.125ZM232.159 19.0891C231.458 18.42 231.094 17.565 231.094 16.4375H229.094C229.094 18.06 229.646 19.455 230.778 20.5359L232.159 19.0891ZM266.156 33.6562L266.022 34.6472L267.14 34.7988L267.156 33.6706L266.156 33.6562ZM256.188 36.875L255.279 36.4575L255.188 36.6563V36.875H256.188ZM256.188 59V60H257.188V59H256.188ZM247.156 59H246.156V60H247.156V59ZM247.156 25.1875V24.1875H246.156V25.1875H247.156ZM255.688 25.1875L256.686 25.1256L256.627 24.1875H255.688V25.1875ZM255.938 29.2188L254.939 29.2806L255.143 32.5627L256.801 29.723L255.938 29.2188ZM266.281 24.9688L267.281 24.9831L267.292 24.2348L266.577 24.0135L266.281 24.9688ZM266.291 32.6653C265.03 32.4944 263.9 32.4062 262.906 32.4062V34.4062C263.787 34.4062 264.824 34.4848 266.022 34.6472L266.291 32.6653ZM262.906 32.4062C259.258 32.4062 256.562 33.6655 255.279 36.4575L257.096 37.2925C257.938 35.4595 259.722 34.4062 262.906 34.4062V32.4062ZM255.188 36.875V59H257.188V36.875H255.188ZM256.188 58H247.156V60H256.188V58ZM248.156 59V25.1875H246.156V59H248.156ZM247.156 26.1875H255.688V24.1875H247.156V26.1875ZM254.689 25.2494L254.939 29.2806L256.936 29.1569L256.686 25.1256L254.689 25.2494ZM256.801 29.723C258.46 26.8813 260.665 25.5625 263.469 25.5625V23.5625C259.856 23.5625 257.04 25.3478 255.074 28.7145L256.801 29.723ZM263.469 25.5625C264.378 25.5625 265.215 25.6854 265.986 25.924L266.577 24.0135C265.598 23.7104 264.56 23.5625 263.469 23.5625V25.5625ZM265.281 24.9544L265.156 33.6419L267.156 33.6706L267.281 24.9831L265.281 24.9544ZM280.062 59V60H281.062V59H280.062ZM271 59H270V60H271V59ZM271 11V10H270V11H271ZM280.062 11H281.062V10H280.062V11ZM280.062 58H271V60H280.062V58ZM272 59V11H270V59H272ZM271 12H280.062V10H271V12ZM279.062 11V59H281.062V11H279.062ZM297.062 59V60H298.062V59H297.062ZM288 59H287V60H288V59ZM288 25.1875V24.1875H287V25.1875H288ZM297.062 25.1875H298.062V24.1875H297.062V25.1875ZM288.812 13.0938L288.122 12.3703L288.114 12.3784L288.812 13.0938ZM296.188 19.8125L295.505 19.0814L295.497 19.0891L296.188 19.8125ZM288.844 19.8125L288.153 20.5359L288.161 20.5436L288.844 19.8125ZM297.062 58H288V60H297.062V58ZM289 59V25.1875H287V59H289ZM288 26.1875H297.062V24.1875H288V26.1875ZM296.062 25.1875V59H298.062V25.1875H296.062ZM288.469 16.4375C288.469 15.3283 288.825 14.4796 289.511 13.8091L288.114 12.3784C287.009 13.4579 286.469 14.8383 286.469 16.4375H288.469ZM289.503 13.8171C290.192 13.1589 291.163 12.7812 292.531 12.7812V10.7812C290.775 10.7812 289.266 11.2786 288.122 12.3704L289.503 13.8171ZM292.531 12.7812C293.875 12.7812 294.836 13.1566 295.528 13.8171L296.909 12.3704C295.768 11.2809 294.271 10.7812 292.531 10.7812V12.7812ZM295.528 13.8171C296.233 14.4894 296.594 15.3357 296.594 16.4375H298.594C298.594 14.831 298.038 13.4481 296.909 12.3704L295.528 13.8171ZM296.594 16.4375C296.594 17.5577 296.224 18.4103 295.505 19.0814L296.87 20.5436C298.026 19.4647 298.594 18.0673 298.594 16.4375H296.594ZM295.497 19.0891C294.803 19.7521 293.85 20.125 292.531 20.125V22.125C294.255 22.125 295.739 21.6229 296.878 20.5359L295.497 19.0891ZM292.531 20.125C291.214 20.125 290.245 19.7522 289.526 19.0814L288.161 20.5436C289.318 21.6228 290.807 22.125 292.531 22.125V20.125ZM289.534 19.0891C288.833 18.42 288.469 17.565 288.469 16.4375H286.469C286.469 18.06 287.021 19.455 288.153 20.5359L289.534 19.0891ZM312.844 25.1875L313.841 25.1157L313.774 24.1875H312.844V25.1875ZM313.125 29.0938L312.128 29.1656L312.311 31.7121L313.906 29.7184L313.125 29.0938ZM330.844 27.7188L331.613 27.0793L330.844 27.7188ZM333.531 37.1562H334.531L334.531 37.1463L333.531 37.1562ZM333.531 59V60H334.531V59H333.531ZM324.5 59H323.5V60H324.5V59ZM323.25 33.2188L322.526 33.9085L322.534 33.9171L323.25 33.2188ZM313.375 35.1562L312.512 34.6503L312.375 34.8846V35.1562H313.375ZM313.375 59V60H314.375V59H313.375ZM304.344 59H303.344V60H304.344V59ZM304.344 25.1875V24.1875H303.344V25.1875H304.344ZM311.846 25.2593L312.128 29.1656L314.122 29.0219L313.841 25.1157L311.846 25.2593ZM313.906 29.7184C316.122 26.9482 319.067 25.5625 322.844 25.5625V23.5625C318.495 23.5625 314.961 25.1976 312.344 28.4691L313.906 29.7184ZM322.844 25.5625C326.228 25.5625 328.57 26.5487 330.075 28.3582L331.613 27.0793C329.618 24.6805 326.626 23.5625 322.844 23.5625V25.5625ZM330.075 28.3582C331.617 30.2129 332.491 33.0926 332.531 37.1662L334.531 37.1463C334.488 32.8449 333.57 29.4329 331.613 27.0793L330.075 28.3582ZM332.531 37.1562V59H334.531V37.1562H332.531ZM333.531 58H324.5V60H333.531V58ZM325.5 59V37.375H323.5V59H325.5ZM325.5 37.375C325.5 35.3488 325.065 33.6472 323.966 32.5204L322.534 33.9171C323.102 34.4986 323.5 35.5679 323.5 37.375H325.5ZM323.974 32.5291C322.865 31.3641 321.145 30.9062 319.094 30.9062V32.9062C320.918 32.9062 321.969 33.3234 322.526 33.9084L323.974 32.5291ZM319.094 30.9062C316.202 30.9062 313.965 32.1731 312.512 34.6503L314.238 35.6622C315.326 33.806 316.902 32.9062 319.094 32.9062V30.9062ZM312.375 35.1562V59H314.375V35.1562H312.375ZM313.375 58H304.344V60H313.375V58ZM305.344 59V25.1875H303.344V59H305.344ZM304.344 26.1875H312.844V24.1875H304.344V26.1875ZM343.844 55.0625L343.144 55.7768L343.146 55.7791L343.844 55.0625ZM341.156 32.9375L342.053 33.3791L342.055 33.3763L341.156 32.9375ZM346.719 26.75L347.233 27.6075L347.235 27.6062L346.719 26.75ZM365.875 28.9375L365.134 29.6094L365.137 29.6123L365.875 28.9375ZM369.875 45.0312V46.0312H370.875V45.0312H369.875ZM348.344 45.0312V44.0312H347.203L347.352 45.1622L348.344 45.0312ZM350.969 50.3438L350.294 51.0818L350.299 51.0865L350.969 50.3438ZM364.719 48.5625L365.465 47.8964L364.665 47.0013L363.929 47.949L364.719 48.5625ZM369.156 53.5312L369.973 54.1083L370.432 53.4585L369.902 52.8651L369.156 53.5312ZM363.656 58.0312L364.074 58.94L364.08 58.9368L363.656 58.0312ZM350.562 33.6875L349.831 33.0061L349.824 33.0129L350.562 33.6875ZM348.438 38.875L347.447 38.7374L347.289 39.875H348.438V38.875ZM361 38.875V39.875H362V38.875H361ZM361 38.1562H362V38.1458L362 38.1354L361 38.1562ZM359.375 33.5312L358.648 34.2175L358.654 34.2244L359.375 33.5312ZM355.969 58.625C351.232 58.625 347.454 57.1805 344.541 54.3459L343.146 55.7791C346.484 59.0278 350.789 60.625 355.969 60.625V58.625ZM344.544 54.3482C341.663 51.5258 340.188 47.748 340.188 42.9062H338.188C338.188 48.1895 339.816 52.5159 343.144 55.7768L344.544 54.3482ZM340.188 42.9062V42.0312H338.188V42.9062H340.188ZM340.188 42.0312C340.188 38.7666 340.818 35.89 342.053 33.3791L340.259 32.4959C338.87 35.3183 338.188 38.5042 338.188 42.0312H340.188ZM342.055 33.3763C343.289 30.8498 345.015 28.9384 347.233 27.6075L346.204 25.8925C343.631 27.4366 341.649 29.6502 340.258 32.4987L342.055 33.3763ZM347.235 27.6062C349.482 26.2505 352.05 25.5625 354.969 25.5625V23.5625C351.721 23.5625 348.789 24.3328 346.202 25.8938L347.235 27.6062ZM354.969 25.5625C359.366 25.5625 362.711 26.9385 365.134 29.6094L366.616 28.2656C363.747 25.1032 359.822 23.5625 354.969 23.5625V25.5625ZM365.137 29.6123C367.583 32.2876 368.875 36.1495 368.875 41.3438H370.875C370.875 35.8297 369.5 31.4207 366.613 28.2627L365.137 29.6123ZM368.875 41.3438V45.0312H370.875V41.3438H368.875ZM369.875 44.0312H348.344V46.0312H369.875V44.0312ZM347.352 45.1622C347.671 47.5723 348.64 49.5694 350.294 51.0818L351.644 49.6057C350.381 48.4514 349.6 46.9069 349.335 44.9003L347.352 45.1622ZM350.299 51.0865C351.986 52.6072 354.1 53.3438 356.562 53.3438V51.3438C354.525 51.3438 352.91 50.747 351.638 49.601L350.299 51.0865ZM356.562 53.3438C360.319 53.3438 363.342 51.9648 365.508 49.176L363.929 47.949C362.179 50.2018 359.765 51.3438 356.562 51.3438V53.3438ZM363.973 49.2286L368.41 54.1974L369.902 52.8651L365.465 47.8964L363.973 49.2286ZM368.34 52.9542C367.094 54.7169 365.402 56.1093 363.232 57.1257L364.08 58.9368C366.536 57.7865 368.51 56.179 369.973 54.1083L368.34 52.9542ZM363.239 57.1226C361.07 58.1188 358.652 58.625 355.969 58.625V60.625C358.91 60.625 361.617 60.0687 364.074 58.9399L363.239 57.1226ZM354.938 30.875C352.895 30.875 351.162 31.576 349.831 33.0061L351.294 34.3689C352.213 33.3823 353.397 32.875 354.938 32.875V30.875ZM349.824 33.0129C348.54 34.4183 347.777 36.3624 347.447 38.7374L349.428 39.0126C349.723 36.8876 350.377 35.3733 351.301 34.3621L349.824 33.0129ZM348.438 39.875H361V37.875H348.438V39.875ZM362 38.875V38.1562H360V38.875H362ZM362 38.1354C361.955 35.9692 361.363 34.1557 360.096 32.8381L358.654 34.2244C359.471 35.0735 359.962 36.3433 360 38.1771L362 38.1354ZM360.102 32.845C358.825 31.4908 357.053 30.875 354.938 30.875V32.875C356.656 32.875 357.842 33.3633 358.648 34.2175L360.102 32.845Z" fill="#3647DE"/>
</svg>
